<mxfile host="app.diagrams.net" agent="Mozilla/5.0 (Windows NT 10.0; Win64; x64) AppleWebKit/537.36 (KHTML, like Gecko) Chrome/129.0.0.0 Safari/537.36" version="24.7.17">
  <diagram name="Page-1" id="ff_FSpK5cOfkmVupP8L2">
    <mxGraphModel dx="1221" dy="608" grid="1" gridSize="10" guides="1" tooltips="1" connect="1" arrows="1" fold="1" page="1" pageScale="1" pageWidth="850" pageHeight="1100" math="0" shadow="0">
      <root>
        <mxCell id="0" />
        <mxCell id="1" parent="0" />
        <mxCell id="ZLosegUHDvikJApbDa9A-4" value="" style="rounded=0;whiteSpace=wrap;html=1;fillColor=#ffe6cc;strokeColor=#d79b00;" vertex="1" parent="1">
          <mxGeometry x="120" y="40" width="670" height="190" as="geometry" />
        </mxCell>
        <mxCell id="ZLosegUHDvikJApbDa9A-2" value="" style="shape=image;verticalLabelPosition=bottom;labelBackgroundColor=#7EA6E0;verticalAlign=top;aspect=fixed;imageAspect=0;image=data:image/png,iVBORw0KGgoAAAANSUhEUgAAATYAAACjCAMAAAA3vsLfAAAAxlBMVEX///8jLz7/mQD/kwD/lwD/kgD/lQAgLTwaKDgYJjcAESgRITMeKzuSlpsAFywAGi7/48sADicSIjTg4eMACiVudHzs7e6go6gAGS0AACH4+flzeIAIHTCvsrbIys3r7O3/1al9gokrN0XJy868v8L/48XX2dsAABpDTFc3QU6FipAAAB6ytbhQWGKYnKFdZG3/zZf/vHP/qkL/pDD/9uv/2rT/793/yZD/sVf/06T/tmT/wX7/oif/69VjaXIyPEr/y5T/rk8W8Y0xAAALZUlEQVR4nO2bZ0PiShSGCWmkkBhAEAwdEVm6FFHE9f//qZtMSZkMyO6qEO95vuySnjdnTpsxkwEAAAAAAAAAAAAAAAAAAAAAAAAAAAAAAAAAAAAAAACAC6NfuR2/GU6pZKmD/aRR+8p7dSf7B80pOYWH6XBU/Mo7fSnl+tTRXS1nCj6qqRlWad+IHtG8Rtz2kifX8nhXhXPhRhvta0c/QrFt6YZmquhWuYLrGLyrXj6NadXNCSya/tAPj6k4GuI++YaDG7yrlE/s6t/jXdXwrPK+qjF3UjXrhqf5RdPr6EnNEGZ1Eh5l4W25MXt+sUTf3k1c+5Yo5AQfYKSzouFzrcR1L5veL5UvGnrdIT2sTGQTdNbp1V16tJ7wUoZKRj3dkC8dupuTroF6y/36lFKdHjcmJmk1Dl7ArTO7ijreobXJhooTtTDTVEMR3XQN02v61jnD1nXLthwr6uj0MjmuQoyqwHqwN5Meq90yu6ghUqm7VXqo6eq22nnr+P8WzLTKphYse5rv9csezW5lqhcSUlDLMQfx85uhAYVjkbAnn8Qiv02isKoPKn082GvFXv5B9wZz+mTLWYVhN7ax3A7EKFFzeyDvbMWdW8+ODOlm/Np0jF7jnxVyqJmL3y1TnGjWr9EnvtTXM/xV3XeTm0dUt8AK8sQCb+LObVgIZbPjbr2vxzd3SIBwy5kEvXQZW6bW5dcDeYOYBs0MqAiFYew4bIQmbxd1h1V8B5qpJCLHT6JWIFHOprLivF4wH6KH4cTEHJscvzfFoSU3xT/pcNaZofyzaBN/rtNUlWYaVnSMNZBsbk9AmpZilqvHrYsan/49z38mejfEl1GHRQsFK+rB8Fgu1fbIsmJJXZfI5hCZ/x+y0cwiiAk1i+Pc0Og0O5kKks+IJnUT7B2DkRvIlt6WxwnUyFsaQWFKfJX6xh7kVQE4YMQqVlJXBLJT8w1qhp8JqXxCC6JJvx46N6yWO6IRxApPr+mMcTVpjVBKV/n5h3RY2cokg4ikZ3jgOUVqinrYa8LBImqbNGEWSvFE5WeRkC0zMNlRhiIB6hhhT2aEWStJjyOn12kXRTAKE07K+zNIykadvBBsQakYKp7wcNX2wS6iccT+MkLQ8FANfTr6Ccr16+3xQ6fTeRvsh5Wun5EmZeuT4OrQhBXX9ygxw8EhrObL2LWpQuQeYQfEDx+2Na2nW7niUHX8qQRTVVUzV3CtkjCtJGWjhULg3HCQwAaFA6dDAwDJ8uJhM68LUXKuM66ktmYoX1cLbNNVzZHObEy2oRbXAhcOuBmOE9+g4CQlvhVvEwzZ7q7plgbprFF7/PY+JSobjY4q+a35IpCas4v2Bf05HDbVAnMzzlyCaRspa3/45KtHJhMY2TLEuZHGWhNlJCSfxXmaVzAgiGujrbaQ8i3HtO1Onz3uwpmE3VmzYOs+lmtoQac7LtueZP64p4h7GjRW4tBJwgVpd9xwMtvmsKBr7FitpqtL2QiCm+YM8r1+sVjsd0eV24Gtc3xbZoTVIEMRuzqXtD1wokbCBemfWPxmXrct6AUzJlyVndq5aAKz0vdMhd0XkpGUSSuQ/wrqUOz4SKHfQdelrTYO/fyD40aUU60UJSO0KyE4yXDGSUBIx8Nzbr7GNeTaglIf1164i0kmbI43couVQSRAJOa9LhjSzWa0wXBlww0irEcDtTTCFAMHTzQuR/hzlD6yoOJtuCSgmhpzo2l/YqrOhzdIqRmhCImd2U3gvnCqhlqVOKEzT1ih0ByTSQshPWlIJdFTC6kVuIaIbRA5N1QXROYPcPREx+fQUafNfZI23jFHeGHQ+QKLM+VXdriykcaGV0ThRC0yS0+c2ziwydJJfVzamOOa/EVCPzSvT921uLL1A2eP/xedPsDh066RWjXaBj4Gndsp/cObfCt0PQxvDo7OG7OLPvD4y12T6BBp9RLj9dJfvIqBF2d4kDCTHtmOWVuOpLvMnDGxDa8sRSfHZk1xMuy5dmyo+okVE/GwqvHX7/HNkFqJXYXgM6QBLreP7yAzKXoRRdpYYwhPdmnX2LUlyvhDEA/LLsq5XOi6juRkUi8oVWlxTiHzfhq2urjguNRU60hy7dQZA5tv1pdLsFyIzUtHkT4sO4LpGgV8YswrkgGMkxQ2PPcm/MDaJt9OT01VWqbqxJfk1tqlULWEFYSrThOmSHZhr8gu5b13q2NOQ6RNIraa+4w3+h5oKBW0QeC/i3kbfX+6Akt1422MZkRTppAsRprebKut5n2inOXe9qL2WRt1qA+1UtTk7QYSmPogP+qNJteCTmaKJ9SqXKaGGISNC7ZWj/TRLMaycOEvaLZujoeTeq83qgzHtk1PyKUmIPhMwxaEWXBt16AvXhoF6QnbNaNL34TIjAvhOlz2e8O02mqBu1RzmuHatu1GWm7ctYKXS43pFlIJ/QUHfWqK9/FsuB8MRVVjLhf6vWSFaRxpvps3KeuKFzl/ACMYAnqLWwNLyFbkZjCymJwuoqidcFWVw5MWRid1q5CaDzbzElqVpnF+luE+JAxhSG1KT8wAqHQxuJMcdD2B//c24f1SxUS3g9dRNbd6HXz6pmv94hSWtbcqmqv5leynNaoO2nXPjYuNfckqxKSL3y9d1OpT3bFubiy9ZOxjCwxqPf6kebPow/XiaE/x4N9VNvJjy7G82GMYrms57r7+pX+C+dUU+71eo/89Kwua3VGlMplU6t2U2hkAAAAAAAAAAF/K+q4123jMWnfrcz9LOliu5o+iLIoKQhRl5X27PPdDHWN5AR+2tZBFRcrGkET57tzPdZilLD+d+bNuRJGRjAj3eN7nOsZSziry5owPsBUVnmY+yhkf6yO2cjYrSq1z3X4h+3YlScijib5zCy1PPtdDncJKljxHsjuPI1nJoixLu8en+eb3bNvazjZeaKDmJ57lkU7lznctkvx4FuFWd6+sa12+iNi3Zc/xQKezzvrfV5IXlxK6npG9Se/nfo4PWD6i7+tZ3Orcj4JYocdR5ud+jg95lvG4kLOtcz9KxncbyLW1zv0cH7OVJZJlKpsz5XGtzRX5H7Y2+fU8z/FHvGZpAFPkp6uPj/9k1i9e8iG38I+ZcvmBNOBJDvJMeTf7VpNbLWQUlRb457Nv+dLTdz7BP7ANixxJFJ++K66+vkjkxuIL3iL5P8XLCE8nsMYRlSonzb9+sC5/72RaGIjE2NbI7MWL7oDE2ciRqlpS5OzLVyq3nD0GmnlRnNhapiWmaYwi1ruIwSHlpPnXjNbXTUQzz59mgw/07m+95LYRjxnTkpAUUV7MPrcrt1zNpahmnqlFcltU3e8+9YbfwPJZZvtfvtE9tz5HuuXdZsd2JcVsxBegrC0NuS7L1S7ZOPSNTnqa3f2To16vXnZiopGriLGG35N0+WX8AVpZkdXNl86zOnH3/FfarVebRTbZ+/bH53Psckt/jMqpyT4YfisHuq6S4tlddjGfJVs+XJavq83zo+Irxul9S/KCqaG2Ypj3ppDlRuFZXGB3it9gfHyfb7arq9f1Mi7hcv16tZptnt93iizHWraMaMku36OUrpwtiSfcgfcN1JNQM1v2ocdK5CfqcB87n9sa9XNdWpumlm02EVWPqygdFSqKIj/xWhxzJStefqPtQ/wq+w+UO1VgUXnhD0Qlq1x6V/c01kGp/VmaKfLiUKRsieLPUM1n9X5gCvivNMtuDifOv+UfMEJDltvFJyiHmgPHm7ap/uMEHsvWezLD/xPJRHm3SUOj+/O5e+Fm+qdIJj2vUp2N/SNLr66UT9cOFxXzT+oDpJzX7fzRz2iVw3kaKST+soT9wazvti9Pj1lcEcSQ/YUd7/PZCmzsMMvXK4ZXkAsAAAAAAAAAAAAAAAAAAAAAAAAAAAAAAAAAAAAAAODC+A/DtNpsfOQTDwAAAABJRU5ErkJggg==;" vertex="1" parent="1">
          <mxGeometry x="128.61" y="70.75" width="263.39" height="138.5" as="geometry" />
        </mxCell>
        <mxCell id="ZLosegUHDvikJApbDa9A-6" value="&lt;span style=&quot;font-size: 22px;&quot;&gt;&lt;font color=&quot;#660033&quot;&gt;How to achieve low latency, low cost, robust and accurate auto-scaling&amp;nbsp; of AWS ECS (Fargate and EC2) ? A detailed custom serverless based scalable solution to consider&lt;/font&gt;&lt;/span&gt;" style="text;html=1;align=left;verticalAlign=middle;whiteSpace=wrap;rounded=0;fontSize=22;fontColor=#B266FF;" vertex="1" parent="1">
          <mxGeometry x="400" y="60" width="360" height="160" as="geometry" />
        </mxCell>
      </root>
    </mxGraphModel>
  </diagram>
</mxfile>
